<svg width="32" height="32" viewBox="0 0 32 32" fill="none" xmlns="http://www.w3.org/2000/svg">
<g clip-path="url(#clip0_1647_28717)">
<path opacity="0.2" d="M16 19C11.7872 19.0066 7.64764 17.8991 4.00098 15.7898V26C4.00098 26.1313 4.02684 26.2614 4.0771 26.3827C4.12735 26.504 4.20101 26.6143 4.29387 26.7071C4.38673 26.8 4.49697 26.8736 4.61829 26.9239C4.73962 26.9741 4.86965 27 5.00098 27H27.001C27.1323 27 27.2623 26.9741 27.3837 26.9239C27.505 26.8736 27.6152 26.8 27.7081 26.7071C27.8009 26.6143 27.8746 26.504 27.9249 26.3827C27.9751 26.2614 28.001 26.1313 28.001 26V15.7886C24.3539 17.8987 20.2135 19.0066 16 19Z" fill="white"/>
<path d="M27.001 9H5.00098C4.44869 9 4.00098 9.44772 4.00098 10V26C4.00098 26.5523 4.44869 27 5.00098 27H27.001C27.5533 27 28.001 26.5523 28.001 26V10C28.001 9.44772 27.5533 9 27.001 9Z" stroke="white" stroke-width="1.5" stroke-linecap="round" stroke-linejoin="round"/>
<path d="M21 9V7C21 6.46957 20.7893 5.96086 20.4142 5.58579C20.0391 5.21071 19.5304 5 19 5H13C12.4696 5 11.9609 5.21071 11.5858 5.58579C11.2107 5.96086 11 6.46957 11 7V9" stroke="white" stroke-width="1.5" stroke-linecap="round" stroke-linejoin="round"/>
<path d="M28.0009 15.7887C24.3538 17.8988 20.2135 19.0067 15.9999 19.0001C11.7871 19.0067 7.64743 17.8991 4.00073 15.7898" stroke="white" stroke-width="1.5" stroke-linecap="round" stroke-linejoin="round"/>
<path d="M14.5 15H17.5" stroke="white" stroke-width="1.5" stroke-linecap="round" stroke-linejoin="round"/>
</g>
<defs>
<clipPath id="clip0_1647_28717">
<rect width="32" height="32" fill="white"/>
</clipPath>
</defs>
</svg>
