<svg width="32" height="32" viewBox="0 0 32 32" fill="none" xmlns="http://www.w3.org/2000/svg">
<g clip-path="url(#clip0_1647_28729)">
<path opacity="0.2" d="M17.9993 26.9979V4.99786C17.9993 4.73265 17.8939 4.47829 17.7064 4.29076C17.5188 4.10322 17.2645 3.99786 16.9993 3.99786H4.99927C4.73405 3.99786 4.4797 4.10322 4.29216 4.29076C4.10462 4.47829 3.99927 4.73265 3.99927 4.99786V26.9979" fill="white"/>
<path d="M2 26.9979H30" stroke="white" stroke-width="1.5" stroke-linecap="round" stroke-linejoin="round"/>
<path d="M17.9993 26.9979V4.99786C17.9993 4.73265 17.8939 4.47829 17.7064 4.29076C17.5188 4.10322 17.2645 3.99786 16.9993 3.99786H4.99927C4.73405 3.99786 4.4797 4.10322 4.29216 4.29076C4.10462 4.47829 3.99927 4.73265 3.99927 4.99786V26.9979" stroke="white" stroke-width="1.5" stroke-linecap="round" stroke-linejoin="round"/>
<path d="M27.9993 26.9979V12.9979C27.9993 12.7326 27.8939 12.4783 27.7064 12.2908C27.5188 12.1032 27.2645 11.9979 26.9993 11.9979H17.9993" stroke="white" stroke-width="1.5" stroke-linecap="round" stroke-linejoin="round"/>
<path d="M7.99927 8.99786H11.9993" stroke="white" stroke-width="1.5" stroke-linecap="round" stroke-linejoin="round"/>
<path d="M9.99927 16.9979H13.9993" stroke="white" stroke-width="1.5" stroke-linecap="round" stroke-linejoin="round"/>
<path d="M7.99927 21.9979H11.9993" stroke="white" stroke-width="1.5" stroke-linecap="round" stroke-linejoin="round"/>
<path d="M21.9993 21.9979H23.9993" stroke="white" stroke-width="1.5" stroke-linecap="round" stroke-linejoin="round"/>
<path d="M21.9993 16.9979H23.9993" stroke="white" stroke-width="1.5" stroke-linecap="round" stroke-linejoin="round"/>
</g>
<defs>
<clipPath id="clip0_1647_28729">
<rect width="32" height="32" fill="white"/>
</clipPath>
</defs>
</svg>
