<svg width="130" height="20" viewBox="0 0 130 20" fill="none" xmlns="http://www.w3.org/2000/svg">
<path d="M8.175 3.32083H10.0008V0.140833C9.68584 0.0975 8.6025 0 7.34084 0C4.70833 0 2.905 1.65583 2.905 4.69917V7.5H0V11.055H2.905V20H6.46667V11.0558H9.25417L9.69667 7.50083H6.46584V5.05167C6.46667 4.02417 6.74333 3.32083 8.175 3.32083Z" fill="#767F8C"/>
<path d="M49.5888 5.19897C49.3582 4.34219 48.6827 3.66684 47.8261 3.43612C46.261 3.00781 40.0007 3.00781 40.0007 3.00781C40.0007 3.00781 33.7405 3.00781 32.1754 3.4198C31.3352 3.65036 30.6432 4.34234 30.4127 5.19897C30.0009 6.7639 30.0009 10.0094 30.0009 10.0094C30.0009 10.0094 30.0009 13.2713 30.4127 14.8199C30.6434 15.6765 31.3188 16.352 32.1755 16.5827C33.7569 17.011 40.0008 17.011 40.0008 17.011C40.0008 17.011 46.261 17.011 47.8261 16.5991C48.6829 16.3685 49.3582 15.693 49.5889 14.8364C50.0008 13.2713 50.0008 10.0259 50.0008 10.0259C50.0008 10.0259 50.0173 6.7639 49.5888 5.19897Z" fill="#767F8C"/>
<path d="M38.0074 13.0074L43.2133 10.0091L38.0074 7.01074V13.0074Z" fill="#18191C"/>
<g clip-path="url(#clip0_1647_32688)">
<path d="M89.9813 5.88005C89.9344 4.81738 89.7626 4.0868 89.5164 3.45374C89.2625 2.78176 88.8718 2.18014 88.3599 1.68002C87.8597 1.1721 87.2542 0.777435 86.59 0.527447C85.9532 0.281274 85.2265 0.109427 84.1638 0.0625732C83.0932 0.0117516 82.7533 0 80.0379 0C77.3226 0 76.9827 0.0117516 75.9161 0.0586052C74.8534 0.105459 74.1228 0.277459 73.4899 0.523479C72.8178 0.777435 72.2162 1.16814 71.716 1.68002C71.2081 2.18014 70.8136 2.78573 70.5635 3.44992C70.3173 4.0868 70.1454 4.81341 70.0986 5.87609C70.0478 6.9467 70.036 7.28658 70.036 10.002C70.036 12.7173 70.0478 13.0572 70.0946 14.1239C70.1415 15.1865 70.3135 15.9171 70.5596 16.5502C70.8136 17.2221 71.2081 17.8238 71.716 18.3239C72.2162 18.8318 72.8217 19.2265 73.4859 19.4765C74.1228 19.7226 74.8494 19.8945 75.9122 19.9413C76.9787 19.9883 77.3188 19.9999 80.0341 19.9999C82.7495 19.9999 83.0894 19.9883 84.156 19.9413C85.2187 19.8945 85.9493 19.7226 86.5822 19.4765C87.9263 18.9568 88.989 17.8941 89.5086 16.5502C89.7546 15.9133 89.9266 15.1865 89.9735 14.1239C90.0204 13.0572 90.0321 12.7173 90.0321 10.002C90.0321 7.28658 90.0281 6.9467 89.9813 5.88005ZM88.1802 14.0457C88.1372 15.0225 87.9731 15.5499 87.8364 15.9015C87.5003 16.7728 86.8088 17.4643 85.9375 17.8004C85.5859 17.9372 85.0546 18.1012 84.0817 18.1441C83.0268 18.1911 82.7104 18.2027 80.0419 18.2027C77.3734 18.2027 77.0531 18.1911 76.002 18.1441C75.0252 18.1012 74.4978 17.9372 74.1462 17.8004C73.7126 17.6402 73.3179 17.3862 72.9976 17.0541C72.6655 16.7298 72.4115 16.3391 72.2513 15.9055C72.1145 15.5539 71.9504 15.0225 71.9076 14.0497C71.8606 12.9948 71.849 12.6783 71.849 10.0097C71.849 7.34122 71.8606 7.02087 71.9076 5.96995C71.9504 4.99319 72.1145 4.46575 72.2513 4.11412C72.4115 3.68038 72.6655 3.28586 73.0015 2.96536C73.3257 2.63327 73.7164 2.37931 74.1501 2.21921C74.5018 2.08247 75.0332 1.9184 76.0059 1.87537C77.0608 1.82851 77.3774 1.81676 80.0457 1.81676C82.7182 1.81676 83.0346 1.82851 84.0857 1.87537C85.0624 1.9184 85.5899 2.08247 85.9415 2.21921C86.3751 2.37931 86.7698 2.63327 87.0901 2.96536C87.4222 3.28967 87.6761 3.68038 87.8364 4.11412C87.9731 4.46575 88.1372 4.99701 88.1802 5.96995C88.2271 7.02484 88.2388 7.34122 88.2388 10.0097C88.2388 12.6783 88.2271 12.9908 88.1802 14.0457Z" fill="#767F8C"/>
<path d="M80.0379 4.86426C77.2015 4.86426 74.9001 7.16543 74.9001 10.002C74.9001 12.8385 77.2015 15.1397 80.0379 15.1397C82.8744 15.1397 85.1756 12.8385 85.1756 10.002C85.1756 7.16543 82.8744 4.86426 80.0379 4.86426ZM80.0379 13.3347C78.1978 13.3347 76.7052 11.8422 76.7052 10.002C76.7052 8.16172 78.1978 6.66927 80.0379 6.66927C81.8781 6.66927 83.3706 8.16172 83.3706 10.002C83.3706 11.8422 81.8781 13.3347 80.0379 13.3347Z" fill="#767F8C"/>
<path d="M86.5783 4.66085C86.5783 5.32321 86.0413 5.86028 85.3788 5.86028C84.7164 5.86028 84.1793 5.32321 84.1793 4.66085C84.1793 3.99834 84.7164 3.46143 85.3788 3.46143C86.0413 3.46143 86.5783 3.99834 86.5783 4.66085Z" fill="#767F8C"/>
</g>
<path d="M130.001 3.79875C129.257 4.125 128.465 4.34125 127.638 4.44625C128.488 3.93875 129.137 3.14125 129.442 2.18C128.65 2.6525 127.775 2.98625 126.842 3.1725C126.09 2.37125 125.017 1.875 123.847 1.875C121.577 1.875 119.75 3.7175 119.75 5.97625C119.75 6.30125 119.777 6.61375 119.845 6.91125C116.436 6.745 113.42 5.11125 111.393 2.6225C111.04 3.23625 110.832 3.93875 110.832 4.695C110.832 6.115 111.563 7.37375 112.653 8.1025C111.995 8.09 111.348 7.89875 110.801 7.5975C110.801 7.61 110.801 7.62625 110.801 7.6425C110.801 9.635 112.222 11.29 114.086 11.6712C113.752 11.7625 113.388 11.8062 113.011 11.8062C112.748 11.8062 112.483 11.7913 112.235 11.7362C112.766 13.36 114.273 14.5538 116.066 14.5925C114.671 15.6838 112.9 16.3412 110.982 16.3412C110.646 16.3412 110.323 16.3263 110.001 16.285C111.817 17.4563 113.97 18.125 116.291 18.125C123.836 18.125 127.961 11.875 127.961 6.4575C127.961 6.27625 127.955 6.10125 127.946 5.9275C128.76 5.35 129.443 4.62875 130.001 3.79875Z" fill="#767F8C"/>
<defs>
<clipPath id="clip0_1647_32688">
<rect width="20" height="20" fill="white" transform="translate(70.0009)"/>
</clipPath>
</defs>
</svg>
